<svg width="32" height="33" viewBox="0 0 32 33" fill="none" xmlns="http://www.w3.org/2000/svg">
<g id="Frame 835">
<path id="Vector" d="M28.8948 30.0045H21.8692C23.0494 29.011 24.1624 27.9486 25.2016 26.8237C29.1007 22.5956 31.1675 18.1385 31.1675 13.9331C31.1675 10.8073 29.8505 7.80961 27.5063 5.59936C25.1621 3.38911 21.9827 2.1474 18.6675 2.1474C15.3523 2.1474 12.1729 3.38911 9.82865 5.59936C7.48444 7.80961 6.16748 10.8073 6.16748 13.9331C6.16748 18.1385 8.22856 22.5956 12.1334 26.8237C13.1726 27.9486 14.2856 29.011 15.4658 30.0045H8.44021C8.13883 30.0045 7.84979 30.1174 7.63668 30.3184C7.42357 30.5193 7.30384 30.7918 7.30384 31.076C7.30384 31.3601 7.42357 31.6327 7.63668 31.8336C7.84979 32.0345 8.13883 32.1474 8.44021 32.1474H28.8948C29.1961 32.1474 29.4852 32.0345 29.6983 31.8336C29.9114 31.6327 30.0311 31.3601 30.0311 31.076C30.0311 30.7918 29.9114 30.5193 29.6983 30.3184C29.4852 30.1174 29.1961 30.0045 28.8948 30.0045ZM8.44021 13.9331C8.44021 11.3757 9.51772 8.92297 11.4357 7.11458C13.3537 5.3062 15.955 4.29026 18.6675 4.29026C21.3799 4.29026 23.9813 5.3062 25.8993 7.11458C27.8172 8.92297 28.8948 11.3757 28.8948 13.9331C28.8948 21.5978 21.0155 27.9956 18.6675 29.7367C16.3195 27.9956 8.44021 21.5978 8.44021 13.9331ZM24.3493 13.9331C24.3493 12.8736 24.0161 11.8378 23.3917 10.9568C22.7674 10.0759 21.88 9.38923 20.8418 8.98376C19.8036 8.57829 18.6612 8.4722 17.559 8.67891C16.4568 8.88561 15.4444 9.39583 14.6498 10.145C13.8552 10.8943 13.3141 11.8488 13.0948 12.888C12.8756 13.9272 12.9881 15.0043 13.4182 15.9832C13.8482 16.9621 14.5765 17.7988 15.5108 18.3874C16.4452 18.9761 17.5437 19.2903 18.6675 19.2903C20.1744 19.2903 21.6196 18.7258 22.6851 17.7212C23.7507 16.7165 24.3493 15.3539 24.3493 13.9331ZM15.2584 13.9331C15.2584 13.2974 15.4583 12.6759 15.8329 12.1474C16.2075 11.6188 16.7399 11.2068 17.3629 10.9635C17.9858 10.7202 18.6713 10.6566 19.3326 10.7806C19.9939 10.9046 20.6013 11.2107 21.0781 11.6603C21.5548 12.1098 21.8795 12.6825 22.0111 13.306C22.1426 13.9295 22.0751 14.5758 21.8171 15.1632C21.559 15.7505 21.1221 16.2525 20.5615 16.6057C20.0008 16.9589 19.3417 17.1474 18.6675 17.1474C17.7633 17.1474 16.8962 16.8088 16.2569 16.206C15.6176 15.6032 15.2584 14.7856 15.2584 13.9331Z" fill="#CAD8DB"/>
</g>
</svg>
